<svg id="visual" viewBox="0 0 900 600" width="900" height="600" xmlns="http://www.w3.org/2000/svg" xmlns:xlink="http://www.w3.org/1999/xlink" version="1.1"><g transform="translate(469.4917012989961 314.6281334753457)"><path d="M146.5 -210.9C176.2 -180 177.3 -119 191 -64.9C204.8 -10.7 231.3 36.5 221.5 73.7C211.8 110.8 165.9 137.9 122.9 158.5C79.9 179 40 193 -6.5 201.9C-52.9 210.8 -105.8 214.6 -146.9 193.5C-187.9 172.3 -217.1 126.2 -238.2 74.3C-259.3 22.5 -272.3 -35.1 -253.6 -79.2C-234.9 -123.3 -184.4 -153.9 -136.9 -178.9C-89.3 -204 -44.7 -223.5 6.9 -232.9C58.4 -242.4 116.8 -241.7 146.5 -210.9" fill="#003342"></path></g></svg>