<svg id="visual" viewBox="0 0 900 600" width="900" height="600" xmlns="http://www.w3.org/2000/svg" xmlns:xlink="http://www.w3.org/1999/xlink" version="1.1"><g transform="translate(429.79859359299905 269.09948908027513)"><path d="M129.9 -164.8C177.2 -144.5 230.3 -118.3 257 -74.4C283.7 -30.6 284 30.9 263.2 82.5C242.3 134.1 200.2 175.9 152.8 210.5C105.4 245.1 52.7 272.5 8 261.6C-36.7 250.6 -73.5 201.1 -116.6 165.1C-159.7 129.2 -209.2 106.6 -228.1 69.2C-247 31.8 -235.2 -20.4 -214.4 -65.1C-193.7 -109.9 -163.8 -147.2 -126.6 -170.7C-89.3 -194.3 -44.7 -204.2 -1.7 -201.9C41.3 -199.6 82.7 -185.1 129.9 -164.8" fill="#003342"></path></g></svg>