<svg id="visual" viewBox="0 0 900 450" width="900" height="450" xmlns="http://www.w3.org/2000/svg" xmlns:xlink="http://www.w3.org/1999/xlink" version="1.1"><rect x="0" y="0" width="900" height="450" fill="#003342"></rect><path d="M0 315L7.2 305.8C14.3 296.7 28.7 278.3 43 276.3C57.3 274.3 71.7 288.7 86 300.7C100.3 312.7 114.7 322.3 128.8 324C143 325.7 157 319.3 171.2 312.3C185.3 305.3 199.7 297.7 214 298.5C228.3 299.3 242.7 308.7 257 313.8C271.3 319 285.7 320 300 314.5C314.3 309 328.7 297 343 294.7C357.3 292.3 371.7 299.7 386 299.5C400.3 299.3 414.7 291.7 428.8 288.3C443 285 457 286 471.2 281.5C485.3 277 499.7 267 514 263.7C528.3 260.3 542.7 263.7 557 265.3C571.3 267 585.7 267 600 265.8C614.3 264.7 628.7 262.3 643 272.5C657.3 282.7 671.7 305.3 686 304.5C700.3 303.7 714.7 279.3 728.8 269.2C743 259 757 263 771.2 271.2C785.3 279.3 799.7 291.7 814 289.8C828.3 288 842.7 272 857 270.5C871.3 269 885.7 282 892.8 288.5L900 295L900 451L892.8 451C885.7 451 871.3 451 857 451C842.7 451 828.3 451 814 451C799.7 451 785.3 451 771.2 451C757 451 743 451 728.8 451C714.7 451 700.3 451 686 451C671.7 451 657.3 451 643 451C628.7 451 614.3 451 600 451C585.7 451 571.3 451 557 451C542.7 451 528.3 451 514 451C499.7 451 485.3 451 471.2 451C457 451 443 451 428.8 451C414.7 451 400.3 451 386 451C371.7 451 357.3 451 343 451C328.7 451 314.3 451 300 451C285.7 451 271.3 451 257 451C242.7 451 228.3 451 214 451C199.7 451 185.3 451 171.2 451C157 451 143 451 128.8 451C114.7 451 100.3 451 86 451C71.7 451 57.3 451 43 451C28.7 451 14.3 451 7.2 451L0 451Z" fill="#40656f"></path><path d="M0 294L7.2 303C14.3 312 28.7 330 43 329.2C57.3 328.3 71.7 308.7 86 309.2C100.3 309.7 114.7 330.3 128.8 341.7C143 353 157 355 171.2 356C185.3 357 199.7 357 214 345.3C228.3 333.7 242.7 310.3 257 309.7C271.3 309 285.7 331 300 339.5C314.3 348 328.7 343 343 333.8C357.3 324.7 371.7 311.3 386 304.3C400.3 297.3 414.7 296.7 428.8 302.3C443 308 457 320 471.2 318.8C485.3 317.7 499.7 303.3 514 300C528.3 296.7 542.7 304.3 557 310.3C571.3 316.3 585.7 320.7 600 325C614.3 329.3 628.7 333.7 643 334.7C657.3 335.7 671.7 333.3 686 332.5C700.3 331.7 714.7 332.3 728.8 325.2C743 318 757 303 771.2 305.3C785.3 307.7 799.7 327.3 814 335C828.3 342.7 842.7 338.3 857 330.2C871.3 322 885.7 310 892.8 304L900 298L900 451L892.8 451C885.7 451 871.3 451 857 451C842.7 451 828.3 451 814 451C799.7 451 785.3 451 771.2 451C757 451 743 451 728.8 451C714.7 451 700.3 451 686 451C671.7 451 657.3 451 643 451C628.7 451 614.3 451 600 451C585.7 451 571.3 451 557 451C542.7 451 528.3 451 514 451C499.7 451 485.3 451 471.2 451C457 451 443 451 428.8 451C414.7 451 400.3 451 386 451C371.7 451 357.3 451 343 451C328.7 451 314.3 451 300 451C285.7 451 271.3 451 257 451C242.7 451 228.3 451 214 451C199.7 451 185.3 451 171.2 451C157 451 143 451 128.8 451C114.7 451 100.3 451 86 451C71.7 451 57.3 451 43 451C28.7 451 14.3 451 7.2 451L0 451Z" fill="#6a8885"></path><path d="M0 353L7.2 353C14.3 353 28.7 353 43 356.5C57.3 360 71.7 367 86 366.3C100.3 365.7 114.7 357.3 128.8 352.5C143 347.7 157 346.3 171.2 343.8C185.3 341.3 199.7 337.7 214 342.3C228.3 347 242.7 360 257 366.5C271.3 373 285.7 373 300 368.7C314.3 364.3 328.7 355.7 343 352C357.3 348.3 371.7 349.7 386 352.5C400.3 355.3 414.7 359.7 428.8 359.2C443 358.7 457 353.3 471.2 348.8C485.3 344.3 499.7 340.7 514 339.3C528.3 338 542.7 339 557 341.5C571.3 344 585.7 348 600 348.8C614.3 349.7 628.7 347.3 643 349.3C657.3 351.3 671.7 357.7 686 362.3C700.3 367 714.7 370 728.8 363.2C743 356.3 757 339.7 771.2 339C785.3 338.3 799.7 353.7 814 357.2C828.3 360.7 842.7 352.3 857 349.8C871.3 347.3 885.7 350.7 892.8 352.3L900 354L900 451L892.8 451C885.7 451 871.3 451 857 451C842.7 451 828.3 451 814 451C799.7 451 785.3 451 771.2 451C757 451 743 451 728.8 451C714.7 451 700.3 451 686 451C671.7 451 657.3 451 643 451C628.7 451 614.3 451 600 451C585.7 451 571.3 451 557 451C542.7 451 528.3 451 514 451C499.7 451 485.3 451 471.2 451C457 451 443 451 428.8 451C414.7 451 400.3 451 386 451C371.7 451 357.3 451 343 451C328.7 451 314.3 451 300 451C285.7 451 271.3 451 257 451C242.7 451 228.3 451 214 451C199.7 451 185.3 451 171.2 451C157 451 143 451 128.8 451C114.7 451 100.3 451 86 451C71.7 451 57.3 451 43 451C28.7 451 14.3 451 7.2 451L0 451Z" fill="#9aaaa1"></path><path d="M0 400L7.2 401.3C14.3 402.7 28.7 405.3 43 405.3C57.3 405.3 71.7 402.7 86 402.7C100.3 402.7 114.7 405.3 128.8 405.2C143 405 157 402 171.2 397.7C185.3 393.3 199.7 387.7 214 383.7C228.3 379.7 242.7 377.3 257 377.3C271.3 377.3 285.7 379.7 300 382C314.3 384.3 328.7 386.7 343 386C357.3 385.3 371.7 381.7 386 378.2C400.3 374.7 414.7 371.3 428.8 374.5C443 377.7 457 387.3 471.2 392.2C485.3 397 499.7 397 514 393.3C528.3 389.7 542.7 382.3 557 379.2C571.3 376 585.7 377 600 380C614.3 383 628.7 388 643 386.5C657.3 385 671.7 377 686 376.3C700.3 375.7 714.7 382.3 728.8 384.7C743 387 757 385 771.2 381.2C785.3 377.3 799.7 371.7 814 367.5C828.3 363.3 842.7 360.7 857 365.3C871.3 370 885.7 382 892.8 388L900 394L900 451L892.8 451C885.7 451 871.3 451 857 451C842.7 451 828.3 451 814 451C799.7 451 785.3 451 771.2 451C757 451 743 451 728.8 451C714.7 451 700.3 451 686 451C671.7 451 657.3 451 643 451C628.7 451 614.3 451 600 451C585.7 451 571.3 451 557 451C542.7 451 528.3 451 514 451C499.7 451 485.3 451 471.2 451C457 451 443 451 428.8 451C414.7 451 400.3 451 386 451C371.7 451 357.3 451 343 451C328.7 451 314.3 451 300 451C285.7 451 271.3 451 257 451C242.7 451 228.3 451 214 451C199.7 451 185.3 451 171.2 451C157 451 143 451 128.8 451C114.7 451 100.3 451 86 451C71.7 451 57.3 451 43 451C28.7 451 14.3 451 7.2 451L0 451Z" fill="#c9cdc5"></path><path d="M0 402L7.2 405C14.3 408 28.7 414 43 417.5C57.3 421 71.7 422 86 417.2C100.3 412.3 114.7 401.7 128.8 398C143 394.3 157 397.7 171.2 400C185.3 402.3 199.7 403.7 214 403.5C228.3 403.3 242.7 401.7 257 400.8C271.3 400 285.7 400 300 402.7C314.3 405.3 328.7 410.7 343 415.5C357.3 420.3 371.7 424.7 386 423C400.3 421.3 414.7 413.7 428.8 413.2C443 412.7 457 419.3 471.2 419.5C485.3 419.7 499.7 413.3 514 413.8C528.3 414.3 542.7 421.7 557 425C571.3 428.3 585.7 427.7 600 423C614.3 418.3 628.7 409.7 643 407.8C657.3 406 671.7 411 686 410.7C700.3 410.3 714.7 404.7 728.8 404.7C743 404.7 757 410.3 771.2 410.3C785.3 410.3 799.7 404.7 814 404.7C828.3 404.7 842.7 410.3 857 410C871.3 409.7 885.7 403.3 892.8 400.2L900 397L900 451L892.8 451C885.7 451 871.3 451 857 451C842.7 451 828.3 451 814 451C799.7 451 785.3 451 771.2 451C757 451 743 451 728.8 451C714.7 451 700.3 451 686 451C671.7 451 657.3 451 643 451C628.7 451 614.3 451 600 451C585.7 451 571.3 451 557 451C542.7 451 528.3 451 514 451C499.7 451 485.3 451 471.2 451C457 451 443 451 428.8 451C414.7 451 400.3 451 386 451C371.7 451 357.3 451 343 451C328.7 451 314.3 451 300 451C285.7 451 271.3 451 257 451C242.7 451 228.3 451 214 451C199.7 451 185.3 451 171.2 451C157 451 143 451 128.8 451C114.7 451 100.3 451 86 451C71.7 451 57.3 451 43 451C28.7 451 14.3 451 7.2 451L0 451Z" fill="#f4f3f0"></path></svg>