<svg id="visual" viewBox="0 0 900 450" width="900" height="450" xmlns="http://www.w3.org/2000/svg" xmlns:xlink="http://www.w3.org/1999/xlink" version="1.1"><rect x="0" y="0" width="900" height="450" fill="#003342"></rect><path d="M0 140L7.2 137C14.3 134 28.7 128 43 124.7C57.3 121.3 71.7 120.7 86 132.7C100.3 144.7 114.7 169.3 128.8 178.7C143 188 157 182 171.2 169.7C185.3 157.3 199.7 138.7 214 140C228.3 141.3 242.7 162.7 257 167.2C271.3 171.7 285.7 159.3 300 160C314.3 160.7 328.7 174.3 343 182C357.3 189.7 371.7 191.3 386 191.8C400.3 192.3 414.7 191.7 428.8 186.5C443 181.3 457 171.7 471.2 161.5C485.3 151.3 499.7 140.7 514 146.2C528.3 151.7 542.7 173.3 557 184.3C571.3 195.3 585.7 195.7 600 195.2C614.3 194.7 628.7 193.3 643 183.2C657.3 173 671.7 154 686 152.2C700.3 150.3 714.7 165.7 728.8 169.8C743 174 757 167 771.2 168.7C785.3 170.3 799.7 180.7 814 177.8C828.3 175 842.7 159 857 159.5C871.3 160 885.7 177 892.8 185.5L900 194L900 0L892.8 0C885.7 0 871.3 0 857 0C842.7 0 828.3 0 814 0C799.7 0 785.3 0 771.2 0C757 0 743 0 728.8 0C714.7 0 700.3 0 686 0C671.7 0 657.3 0 643 0C628.7 0 614.3 0 600 0C585.7 0 571.3 0 557 0C542.7 0 528.3 0 514 0C499.7 0 485.3 0 471.2 0C457 0 443 0 428.8 0C414.7 0 400.3 0 386 0C371.7 0 357.3 0 343 0C328.7 0 314.3 0 300 0C285.7 0 271.3 0 257 0C242.7 0 228.3 0 214 0C199.7 0 185.3 0 171.2 0C157 0 143 0 128.8 0C114.7 0 100.3 0 86 0C71.7 0 57.3 0 43 0C28.7 0 14.3 0 7.2 0L0 0Z" fill="#40656f"></path><path d="M0 149L7.2 151.2C14.3 153.3 28.7 157.7 43 150.8C57.3 144 71.7 126 86 125.5C100.3 125 114.7 142 128.8 146C143 150 157 141 171.2 132.3C185.3 123.7 199.7 115.3 214 117.2C228.3 119 242.7 131 257 138.2C271.3 145.3 285.7 147.7 300 141.3C314.3 135 328.7 120 343 111.3C357.3 102.7 371.7 100.3 386 109.7C400.3 119 414.7 140 428.8 142.2C443 144.3 457 127.7 471.2 116.7C485.3 105.7 499.7 100.3 514 101.5C528.3 102.7 542.7 110.3 557 115.5C571.3 120.7 585.7 123.3 600 119.8C614.3 116.3 628.7 106.7 643 106.5C657.3 106.3 671.7 115.7 686 116.5C700.3 117.3 714.7 109.7 728.8 104C743 98.3 757 94.7 771.2 96.5C785.3 98.3 799.7 105.7 814 109.7C828.3 113.7 842.7 114.3 857 113.7C871.3 113 885.7 111 892.8 110L900 109L900 0L892.8 0C885.7 0 871.3 0 857 0C842.7 0 828.3 0 814 0C799.7 0 785.3 0 771.2 0C757 0 743 0 728.8 0C714.7 0 700.3 0 686 0C671.7 0 657.3 0 643 0C628.7 0 614.3 0 600 0C585.7 0 571.3 0 557 0C542.7 0 528.3 0 514 0C499.7 0 485.3 0 471.2 0C457 0 443 0 428.8 0C414.7 0 400.3 0 386 0C371.7 0 357.3 0 343 0C328.7 0 314.3 0 300 0C285.7 0 271.3 0 257 0C242.7 0 228.3 0 214 0C199.7 0 185.3 0 171.2 0C157 0 143 0 128.8 0C114.7 0 100.3 0 86 0C71.7 0 57.3 0 43 0C28.7 0 14.3 0 7.2 0L0 0Z" fill="#6a8885"></path><path d="M0 86L7.2 83.8C14.3 81.7 28.7 77.3 43 75.3C57.3 73.3 71.7 73.7 86 72.5C100.3 71.3 114.7 68.7 128.8 74.2C143 79.7 157 93.3 171.2 94.8C185.3 96.3 199.7 85.7 214 85.2C228.3 84.7 242.7 94.3 257 102.2C271.3 110 285.7 116 300 113.7C314.3 111.3 328.7 100.7 343 98.5C357.3 96.3 371.7 102.7 386 104.7C400.3 106.7 414.7 104.3 428.8 102.8C443 101.3 457 100.7 471.2 102.8C485.3 105 499.7 110 514 114.2C528.3 118.3 542.7 121.7 557 119.3C571.3 117 585.7 109 600 105.2C614.3 101.3 628.7 101.7 643 99C657.3 96.3 671.7 90.7 686 85.3C700.3 80 714.7 75 728.8 73.8C743 72.7 757 75.3 771.2 79.5C785.3 83.7 799.7 89.3 814 89.5C828.3 89.7 842.7 84.3 857 84.5C871.3 84.7 885.7 90.3 892.8 93.2L900 96L900 0L892.8 0C885.7 0 871.3 0 857 0C842.7 0 828.3 0 814 0C799.7 0 785.3 0 771.2 0C757 0 743 0 728.8 0C714.7 0 700.3 0 686 0C671.7 0 657.3 0 643 0C628.7 0 614.3 0 600 0C585.7 0 571.3 0 557 0C542.7 0 528.3 0 514 0C499.7 0 485.3 0 471.2 0C457 0 443 0 428.8 0C414.7 0 400.3 0 386 0C371.7 0 357.3 0 343 0C328.7 0 314.3 0 300 0C285.7 0 271.3 0 257 0C242.7 0 228.3 0 214 0C199.7 0 185.3 0 171.2 0C157 0 143 0 128.8 0C114.7 0 100.3 0 86 0C71.7 0 57.3 0 43 0C28.7 0 14.3 0 7.2 0L0 0Z" fill="#9aaaa1"></path><path d="M0 53L7.2 57.5C14.3 62 28.7 71 43 75C57.3 79 71.7 78 86 75.7C100.3 73.3 114.7 69.7 128.8 69.2C143 68.7 157 71.3 171.2 67.5C185.3 63.7 199.7 53.3 214 48C228.3 42.7 242.7 42.3 257 43.2C271.3 44 285.7 46 300 52.3C314.3 58.7 328.7 69.3 343 69.7C357.3 70 371.7 60 386 61.2C400.3 62.3 414.7 74.7 428.8 73.7C443 72.7 457 58.3 471.2 50.8C485.3 43.3 499.7 42.7 514 43.2C528.3 43.7 542.7 45.3 557 47C571.3 48.7 585.7 50.3 600 50C614.3 49.7 628.7 47.3 643 52.8C657.3 58.3 671.7 71.7 686 72.7C700.3 73.7 714.7 62.3 728.8 55.8C743 49.3 757 47.7 771.2 50.7C785.3 53.7 799.7 61.3 814 64C828.3 66.7 842.7 64.3 857 66.3C871.3 68.3 885.7 74.7 892.8 77.8L900 81L900 0L892.8 0C885.7 0 871.3 0 857 0C842.7 0 828.3 0 814 0C799.7 0 785.3 0 771.2 0C757 0 743 0 728.8 0C714.7 0 700.3 0 686 0C671.7 0 657.3 0 643 0C628.7 0 614.3 0 600 0C585.7 0 571.3 0 557 0C542.7 0 528.3 0 514 0C499.7 0 485.3 0 471.2 0C457 0 443 0 428.8 0C414.7 0 400.3 0 386 0C371.7 0 357.3 0 343 0C328.7 0 314.3 0 300 0C285.7 0 271.3 0 257 0C242.7 0 228.3 0 214 0C199.7 0 185.3 0 171.2 0C157 0 143 0 128.8 0C114.7 0 100.3 0 86 0C71.7 0 57.3 0 43 0C28.7 0 14.3 0 7.2 0L0 0Z" fill="#c9cdc5"></path><path d="M0 39L7.2 41.8C14.3 44.7 28.7 50.3 43 50.3C57.3 50.3 71.7 44.7 86 42.5C100.3 40.3 114.7 41.7 128.8 44.8C143 48 157 53 171.2 49.3C185.3 45.7 199.7 33.3 214 30C228.3 26.7 242.7 32.3 257 38C271.3 43.7 285.7 49.3 300 48C314.3 46.7 328.7 38.3 343 37.2C357.3 36 371.7 42 386 44.5C400.3 47 414.7 46 428.8 47.3C443 48.7 457 52.3 471.2 48C485.3 43.7 499.7 31.3 514 27.2C528.3 23 542.7 27 557 27.7C571.3 28.3 585.7 25.7 600 26.2C614.3 26.7 628.7 30.3 643 35C657.3 39.7 671.7 45.3 686 43.8C700.3 42.3 714.7 33.7 728.8 28C743 22.3 757 19.7 771.2 23.2C785.3 26.7 799.7 36.3 814 38.5C828.3 40.7 842.7 35.3 857 30.5C871.3 25.7 885.7 21.3 892.8 19.2L900 17L900 0L892.8 0C885.7 0 871.3 0 857 0C842.7 0 828.3 0 814 0C799.7 0 785.3 0 771.2 0C757 0 743 0 728.8 0C714.7 0 700.3 0 686 0C671.7 0 657.3 0 643 0C628.7 0 614.3 0 600 0C585.7 0 571.3 0 557 0C542.7 0 528.3 0 514 0C499.7 0 485.3 0 471.2 0C457 0 443 0 428.8 0C414.7 0 400.3 0 386 0C371.7 0 357.3 0 343 0C328.7 0 314.3 0 300 0C285.7 0 271.3 0 257 0C242.7 0 228.3 0 214 0C199.7 0 185.3 0 171.2 0C157 0 143 0 128.8 0C114.7 0 100.3 0 86 0C71.7 0 57.3 0 43 0C28.7 0 14.3 0 7.2 0L0 0Z" fill="#f4f3f0"></path></svg>